<?xml version="1.0" encoding="UTF-8"?>
<svg xmlns="http://www.w3.org/2000/svg" xmlns:xlink="http://www.w3.org/1999/xlink" version="1.1" x="0px" y="0px" viewBox="0 0 500 500" style="enable-background:new 0 0 500 500;" xml:space="preserve">
<g id="BACKGROUND">
</g>
<g id="OBJECTS">
	<g>
		<path style="fill:#F75B9D;stroke:#3F3F3F;stroke-width:0.5;stroke-miterlimit:10;" d="M59.196,163.3    c-9.616-71.895-1.297-91.434,76.651-87.463c71.686,3.653,85.334-8.03,95.311-75.837h-14.024    c-5.051,60.312-37.87,59.079-97.294,53.893c-23.906-2.087-60.512-12.678-76.904,12.873c-11.399,17.768-0.556,56.495,2.007,75.062    c4.682,33.926,12.96,59.861-9.91,84.009C26.532,234.813,14.031,239.586,0,242.169v15.387c20.09-0.39,41.34-2.548,52.802-11.983    C76.977,225.672,62.547,188.354,59.196,163.3z"></path>
		<path style="fill:#00C2CC;stroke:#3F3F3F;stroke-width:0.5;stroke-miterlimit:10;" d="M397.936,112.79    c-22.523,26.476-8.938,34.834,12.759,66.074c8.049,11.59,28.341,34.907,17.637,51.138c-14.02,21.261-61.695-1.234-78.451-5.434    c-26.492-6.64-49.388-18.851-71.854,4.41c-15.1,15.634-18.195,54.278-22.76,74.209c-7.576,33.084-11.137,60.484-34.662,84.074    c-25.6,25.671-70.914,30.97-104.521,42.091c-23.148,7.66-59.725,15.563-76.939,34.953C30.161,474.422,26.142,486.933,23.732,500    h14.853c2.563-8.667,6.398-16.805,12.626-23.821c17.205-19.382,53.79-27.301,76.929-34.962    c33.598-11.125,78.834-16.43,104.436-42.09c23.535-23.588,27.085-50.911,34.646-84.01c4.548-19.912,7.629-58.513,22.716-74.127    c22.422-23.205,45.463-11.03,71.966-4.503c16.735,4.122,64.663,26.43,78.62,5.328c10.754-16.259-9.598-39.546-17.681-51.133    c-21.732-31.157-35.374-39.549-12.914-66.026c16.346-19.269,55.573-32.814,90.071-43.464V65.75    C463.191,76.893,416.318,91.181,397.936,112.79z"></path>
		<path style="fill:#00C2CC;stroke:#3F3F3F;stroke-width:0.5;stroke-miterlimit:10;" d="M18.125,208.38    c23.519-25.304,15.616-52.907,11.732-88.295c-2.092-19.057-12.666-61.124-0.463-78.955c17.69-25.848,53.772-12.743,78.097-9.204    C158.242,39.308,195.677,45.674,202.151,0h-15.466c-11.01,30.513-46.524,22.292-90.804,14.09    C71.287,9.534,35.617-5.282,17.066,20.847c-12.691,17.875-2.345,62.202-0.576,81.575c3.308,36.214,10.99,65.072-12.861,91.034    c-1.132,1.232-2.359,2.378-3.629,3.485v23.689C7.046,217.588,13.247,213.627,18.125,208.38z"></path>
		<path style="fill:#FFA617;stroke:#3F3F3F;stroke-width:0.5;stroke-miterlimit:10;" d="M81.725,279.401    c25.704-17.253,14.452-42.276,7.189-71.264c-14.076-56.176-6.254-79.657,54.808-86.663c79.431-9.114,97.316-14.996,116.418-94.441    c1.798-7.478,3.065-16.94,4.593-27.032h-16.099c-0.653,5.475-1.341,10.646-2.256,15.258    c-15.637,78.824-36.572,80.332-114.175,84.064c-64.191,3.088-69.531,29.86-57.475,87.63c6.607,31.658,16.946,56.757-9.255,75.97    C48.633,275.271,22.793,273.491,0,272.036v11.573C25.104,284.779,59.736,294.16,81.725,279.401z"></path>
		<path style="fill:#F75B9D;stroke:#3F3F3F;stroke-width:0.5;stroke-miterlimit:10;" d="M422.143,136.678    c-12.896,24.268-3.985,30.512,8.918,56.437c8.456,16.99,37.587,48.778,12.892,65.867c-15.842,10.962-52.935-2.65-68.832-6.127    c-75.609-16.539-82.684,9.927-97.456,78.363c-17.457,80.87-38.684,93.394-116.085,115.577    c-30.674,8.791-75.542,15.677-96.462,43.113c-2.488,3.263-4.543,6.635-6.274,10.092h18.546c1.072-1.772,2.238-3.517,3.538-5.225    c20.564-27.014,63.931-31.332,94.519-38.489c75.842-17.746,97.235-28.721,110.035-108.102    c11.126-68.998,19.962-90.387,94.886-79.96c17.003,2.366,54.538,13.04,70.592,1.462c24.304-17.527,0.081-50.61-6.945-70.078    c-9.704-26.889-18.056-35.859-4.06-59.612c9.854-16.723,33.986-26.05,60.046-32.583V96.082    C467.126,104.66,433.169,115.927,422.143,136.678z"></path>
		<path style="fill:#DCFF6D;stroke:#3F3F3F;stroke-width:0.5;stroke-miterlimit:10;" d="M165.372,3.743    c1.765-1.236,3.313-2.484,4.676-3.743H89.105C113.321,7.061,144.895,18.079,165.372,3.743z"></path>
		<path style="fill:#0059FF;stroke:#3F3F3F;stroke-width:0.5;stroke-miterlimit:10;" d="M113.49,314.233    c26.386-16.228,9.491-45.994,3.531-68.171c-15.729-58.523-3.306-71.33,55.985-85.698c28.482-6.902,64.524-6.664,86.178-29.952    c19.856-21.355,24.493-64.692,31.631-91.301c2.262-8.432,4.986-23.613,9.036-39.112H283.25c-2.38,11.024-4.14,21.108-5.749,27.65    c-6.33,25.732-10.02,67.737-29.225,88.353c-22.013,23.631-58.196,21.388-87.022,27.153    c-61.343,12.269-71.709,26.427-57.398,86.103c5.523,23.032,22.042,53.578-4.399,70.387c-19.677,12.509-66.794-1.578-87.415-3.846    c-3.55-0.391-7.635-0.966-12.042-1.562v9.138c10.446,1.18,20.472,3.228,28.239,4.373    C48.231,310.697,93.953,326.247,113.49,314.233z"></path>
		<path style="fill:#F75B9D;stroke:#3F3F3F;stroke-width:0.5;stroke-miterlimit:10;" d="M370.904,35.303    c-27.952,20.67-15.823,57.98-15.138,86.719c1.857,77.937-23.58,77.082-96.176,76.95c-60.586-0.11-67.791,28.553-67.079,83.568    c0.414,31.986,4.437,56.057-20.989,75.176c-22.085,16.606-56.35,12.99-82.52,16.049C34.453,380.143,11.7,388.563,0,413.478v24.185    c2.241-7.028,5.407-13.645,10.015-19.565c20.885-26.83,62.597-27.689,93.927-32.768c75.585-12.252,96.953-20.949,104.624-100.193    c6.451-66.637,15.007-88.622,87.344-80.981c71.29,7.531,83.404-5.57,71.095-77.611c-4.656-27.254-11.698-41.463,4.13-63.885    c21.709-30.751,83.001-25.447,117.119-32.923c3.399-0.745,7.408-1.523,11.745-2.423v-8.246c-9.491,1.882-20.367,2.783-31.99,3.937    C442.437,25.545,393.22,18.801,370.904,35.303z"></path>
		<path style="fill:#DCFF6D;stroke:#3F3F3F;stroke-width:0.5;stroke-miterlimit:10;" d="M2.882,87.023    C2.496,80.292,1.161,71.184,0,61.218v111.669C14.917,149.644,4.264,111.082,2.882,87.023z"></path>
		<path style="fill:#0059FF;stroke:#3F3F3F;stroke-width:0.5;stroke-miterlimit:10;" d="M377.104,83.079    c-14.186,23.463-5.992,32.915,3.042,59.714c6.488,19.244,30.03,53.45,5.665,70.257c-16.037,11.063-51.051-0.429-67.554-3.444    c-73.976-13.512-81.389,12.086-92.701,79.304c-13.547,80.497-34.575,91.481-111.669,109.453    c-31.086,7.247-74.677,11.519-95.657,38.754C4.395,455.078,3.305,477.798,1.293,500h9.7c2.01-16.571,5.208-32.617,15.796-46.437    c21.064-27.493,66.096-34.362,96.91-43.169c77.956-22.281,98.968-34.782,116.751-116.13c14.762-67.528,21.505-96.26,96.569-78.099    c15.719,3.803,51.59,17.814,67.499,6.997c24.71-16.802-4.047-49.037-12.28-65.994c-12.625-26.005-21.44-32.34-8.38-56.533    C399.893,70.931,461.399,61.463,500,50.939V38.548C464.652,48.343,396.353,51.243,377.104,83.079z"></path>
		<path style="fill:#938D8C;stroke:#3F3F3F;stroke-width:0.5;stroke-miterlimit:10;" d="M193.619,500h40.211    C216.326,497.839,203.315,497.889,193.619,500z"></path>
		<path style="fill:#0059FF;stroke:#3F3F3F;stroke-width:0.5;stroke-miterlimit:10;" d="M446.152,445.233    c-10.672,14.106-13.083,34.482-13.535,54.767h14.767c1.581-18.521,5.346-36.363,14.73-48.4    c10.397-13.336,23.363-18.526,37.885-19.826v-7.461C478.873,423.74,459.753,427.255,446.152,445.233z"></path>
		<path style="fill:#00C2CC;stroke:#3F3F3F;stroke-width:0.5;stroke-miterlimit:10;" d="M372.196,428.992    c-13.714,20.99-3.427,42.49,0.621,66.02c0.293,1.702,0.562,3.356,0.819,4.988h12.483c-3.409-20.338-10.586-52.199,0.509-68.738    c13.377-19.941,52.488-21.791,72.792-24.596c10.919-1.508,25.441-1.974,40.579-3.229v-11.929    c-19.287,3.625-39.316,5.122-54.066,8.34C421.323,405.216,387.036,406.278,372.196,428.992z"></path>
		<path style="fill:#0059FF;stroke:#3F3F3F;stroke-width:0.5;stroke-miterlimit:10;" d="M338.089,416.844    c-12.14,19.534-0.623,33.498,6.486,53.97c3.114,8.969,8.32,19.206,11.008,29.185h7.856c-2.043-6.164-4.218-12.119-5.649-17.467    c-5.679-21.223-17.257-39.078-4.265-58.62c14.772-22.22,48.205-25.422,72.356-32.14c20.965-5.832,50.135-8.832,74.12-18.021    v-20.65c-25.499,16.678-63.933,21.232-90.268,29.619C386.559,390.1,351.843,394.712,338.089,416.844z"></path>
		<path style="fill:#00C2CC;stroke:#3F3F3F;stroke-width:0.5;stroke-miterlimit:10;" d="M486.029,225.549    c-3.987,84.889-34.584,84.382-114.158,97.074c-59.013,9.413-75.72,26.27-66.467,84.855c12.001,75.978-23.788,73.879-89.614,75.802    c-38.729,1.132-60.468,5.174-72.921,16.719h9.401c16.279-16.667,52.541-10.383,72.06-8.992    c65.391,4.659,104.366,11.787,87.931-65.455c-13.357-62.776,7.928-71.333,68.662-86.297c30.374-7.483,78.518-7.968,100.513-34.018    c17.498-20.724,15.142-60.706,17.478-85.428c0.419-4.434,0.719-9.69,1.087-15.386v-65.048    C479.217,161.294,487.313,198.227,486.029,225.549z"></path>
		<path style="fill:#F75B9D;stroke:#3F3F3F;stroke-width:0.5;stroke-miterlimit:10;" d="M386.975,356.369    c-23.463,7.073-56.763,10.991-70.771,33.108c-12.254,19.348-1.514,33.412,4.938,53.976c9.966,31.76,7.949,48.48-2.297,56.547    h20.142c1.756-9.409-0.424-23.016-7.68-42.292c-7.666-20.368-18.973-32.786-6.967-52.5c13.515-22.192,48.448-27.192,71.47-34.814    c31.303-10.364,80.536-15.716,103.453-42.043c0.252-0.29,0.489-0.598,0.735-0.895v-28.842    c-2.654,6.881-6.026,13.121-10.428,18.237C466.716,343.41,418.328,346.918,386.975,356.369z"></path>
		<path style="fill:#DCFF6D;stroke:#3F3F3F;stroke-width:0.5;stroke-miterlimit:10;" d="M0,0v14.57C1.243,9.062,3.189,4.093,6.092,0    H0z"></path>
		<path style="fill:#00C2CC;stroke:#3F3F3F;stroke-width:0.5;stroke-miterlimit:10;" d="M493.714,0    c-9.489,11.557-26.99,9.703-57.861,4.109c-4.815-0.873-10.64-2.422-16.994-4.109h-66.057    c-18.336,16.109-20.253,60.566-23.414,80.508c-3.942,24.868-4.131,65.798-22.503,85.982    c-21.36,23.467-57.862,19.774-85.956,24.497c-60.746,10.213-70.104,25.509-61.288,84.769c3.531,23.732,16.3,54.231-9.124,70.858    c-19.597,12.816-65.388,1.689-86.535,0.494C47.077,346.152,19.299,341.94,0,349.436v32.197    c12.973-14.433,35.878-19.82,79.466-21.401c70.536-2.559,104.439-0.507,95.709-80.641c-5.961-54.715,2.271-79.533,61.229-84.164    c76.303-5.993,96.608-9.811,104.709-88.981c2.922-28.553-4.72-74.181,24.951-92.477c21.474-13.241,65.797-0.553,88.667,0.221    c19.421,0.657,34.609,0.756,45.269-4.188V0H493.714z"></path>
		<path style="fill:#DCFF6D;stroke:#3F3F3F;stroke-width:0.5;stroke-miterlimit:10;" d="M53.338,333.295    c20.114,2.421,65.913,16.611,85.221,4.502c25.732-16.139,10.317-46.089,5.224-68.497c-13.31-58.557-1.915-72.042,57.467-85.358    c28.503-6.391,64.352-5.287,86.034-28.688c19.657-21.216,22.845-63.651,28.971-90.069c3.221-13.89,6.982-43.904,16.064-65.185    h-15.256c-6.232,19.497-9.93,41.33-12.844,52.063c-7.263,26.756-12.038,70.621-32.11,92.053    c-21.431,22.882-57.768,23.395-85.918,30.587c-58.579,14.968-71.71,27.341-55.735,85.528c6.031,21.968,22.834,51.613-3.528,67.698    c-19.54,11.923-64.669-3.993-84.527-7.143c-11.286-1.79-27.284-5.491-42.403-5.591v14.666    C17.917,327.182,39.41,331.619,53.338,333.295z"></path>
		<path style="fill:#0059FF;stroke:#3F3F3F;stroke-width:0.5;stroke-miterlimit:10;" d="M460.804,141.175    c-15.622,23.057-8.267,36.066-2.518,63.805c4.714,22.745,23.206,57.587-1.312,76.02c-16.748,12.592-54.25,5.646-72.977,4.86    c-73.476-3.082-85.666,12.793-91.33,82.182c-6.304,77.23-28.271,85.87-101.65,97.736c-30.29,4.898-71.738,5.81-91.82,32.183    c-0.512,0.672-0.999,1.353-1.472,2.038h24.257c12.784-14.722,35.489-20.525,77.814-25.378    c70.117-8.04,102.283-9.003,98.942-87.603c-2.487-58.51,9.877-79.712,70.946-84.051c27.257-1.936,71.82,4.924,93.599-16.965    c18.946-19.041,11.492-40.699,9.712-66.08c-2.068-29.493-15.836-64.585,12.207-86.554c4.088-3.203,9.129-5.746,14.797-7.8v-7.986    C483.158,122.336,468.735,129.468,460.804,141.175z"></path>
		<path style="fill:#00C2CC;stroke:#3F3F3F;stroke-width:0.5;stroke-miterlimit:10;" d="M474.521,459.039    c-7.248,8.666-10.773,24.06-12.546,40.961H500v-56.426C490.416,445.842,481.661,450.502,474.521,459.039z"></path>
		<path style="fill:#F75B9D;stroke:#3F3F3F;stroke-width:0.5;stroke-miterlimit:10;" d="M481.55,412.781    c-21.273,1.453-59.384,0.6-74.375,20.562c-10.998,14.645-8.511,44.033-6.172,66.657h15.195    c-0.789-21.266-0.352-43.627,10.958-59.364c16.543-23.018,44.688-23.222,72.844-22.106v-6.03    C492.931,412.437,486.608,412.436,481.55,412.781z"></path>
		<path style="fill:#DCFF6D;stroke:#3F3F3F;stroke-width:0.5;stroke-miterlimit:10;" d="M469.615,0h-21.947    C457.018,1.863,464.142,2.028,469.615,0z"></path>
		<path style="fill:#FFA617;stroke:#3F3F3F;stroke-width:0.5;stroke-miterlimit:10;" d="M3.629,193.456    c23.852-25.962,16.169-54.82,12.861-91.034c-1.769-19.373-12.115-63.7,0.576-81.575C35.617-5.282,71.287,9.534,95.881,14.09    C140.16,22.292,175.674,30.513,186.685,0h-16.637c-1.363,1.26-2.911,2.508-4.676,3.743C144.895,18.079,113.321,7.061,89.105,0    H6.092C3.189,4.093,1.243,9.062,0,14.57v46.649c1.161,9.966,2.496,19.074,2.882,25.804C4.264,111.082,14.917,149.644,0,172.887    v24.054C1.27,195.834,2.497,194.688,3.629,193.456z"></path>
		<path style="fill:#0059FF;stroke:#3F3F3F;stroke-width:0.5;stroke-miterlimit:10;" d="M44.943,141.829    c-2.563-18.567-13.406-57.294-2.007-75.062c16.392-25.551,52.998-14.96,76.904-12.873c59.423,5.186,92.242,6.419,97.294-53.893    h-14.983c-6.474,45.674-43.909,39.308-94.662,31.925c-24.325-3.539-60.406-16.645-78.097,9.204    c-12.203,17.831-1.628,59.898,0.463,78.955c3.885,35.389,11.787,62.992-11.732,88.295C13.247,213.627,7.046,217.588,0,220.63    v21.539c14.031-2.583,26.532-7.356,35.033-16.331C57.904,201.69,49.626,175.755,44.943,141.829z"></path>
		<path style="fill:#DCFF6D;stroke:#3F3F3F;stroke-width:0.5;stroke-miterlimit:10;" d="M65.472,262.923    c26.202-19.213,15.862-44.312,9.255-75.97c-12.056-57.771-6.716-84.543,57.475-87.63c77.603-3.733,98.538-5.24,114.175-84.064    c0.915-4.611,1.602-9.783,2.256-15.258h-17.475c-9.977,67.807-23.625,79.49-95.311,75.837    C57.899,71.865,49.58,91.405,59.196,163.3c3.351,25.054,17.781,62.372-6.394,82.272C41.34,255.008,20.09,257.165,0,257.556v14.481    C22.793,273.491,48.633,275.271,65.472,262.923z"></path>
		<path style="fill:#00C2CC;stroke:#3F3F3F;stroke-width:0.5;stroke-miterlimit:10;" d="M99.457,299.647    c26.441-16.809,9.922-47.355,4.399-70.387c-14.311-59.676-3.945-73.834,57.398-86.103c28.825-5.765,65.008-3.522,87.022-27.153    C267.48,95.387,271.17,53.381,277.5,27.65c1.609-6.542,3.37-16.625,5.749-27.65h-18.517c-1.528,10.092-2.796,19.555-4.593,27.032    c-19.102,79.446-36.986,85.328-116.418,94.441c-61.062,7.006-68.884,30.487-54.808,86.663    c7.264,28.988,18.515,54.011-7.189,71.264C59.736,294.16,25.104,284.779,0,283.61v10.629c4.407,0.596,8.491,1.172,12.042,1.562    C32.663,298.069,79.78,312.156,99.457,299.647z"></path>
		<path style="fill:#F75B9D;stroke:#3F3F3F;stroke-width:0.5;stroke-miterlimit:10;" d="M126.929,327.929    c26.362-16.085,9.56-45.73,3.528-67.698c-15.975-58.187-2.844-70.56,55.735-85.528c28.15-7.193,64.488-7.706,85.918-30.587    c20.072-21.432,24.847-65.297,32.11-92.053C307.134,41.33,310.833,19.497,317.064,0H299.85c-4.05,15.499-6.774,30.68-9.036,39.112    c-7.138,26.609-11.775,69.946-31.631,91.301c-21.653,23.288-57.696,23.05-86.178,29.952    c-59.291,14.367-71.715,27.175-55.985,85.698c5.961,22.177,22.855,51.943-3.531,68.171c-19.536,12.015-65.259-3.535-85.251-6.483    c-7.767-1.145-17.793-3.193-28.239-4.373v11.819c15.119,0.099,31.116,3.801,42.403,5.591    C62.26,323.936,107.389,339.852,126.929,327.929z"></path>
		<path style="fill:#FFA617;stroke:#3F3F3F;stroke-width:0.5;stroke-miterlimit:10;" d="M63.982,347.108    c21.146,1.195,66.937,12.322,86.535-0.494c25.424-16.627,12.655-47.126,9.124-70.858c-8.816-59.26,0.542-74.556,61.288-84.769    c28.094-4.723,64.596-1.03,85.956-24.497c18.372-20.184,18.561-61.114,22.503-85.982c3.161-19.942,5.078-64.399,23.414-80.508    H332.32c-9.082,21.282-12.843,51.296-16.064,65.185c-6.127,26.418-9.314,68.853-28.971,90.069    c-21.681,23.401-57.53,22.297-86.034,28.688c-59.382,13.316-70.777,26.801-57.467,85.358c5.093,22.407,20.508,52.358-5.224,68.497    c-19.308,12.109-65.107-2.081-85.221-4.502C39.41,331.619,17.917,327.182,0,329.862v19.575    C19.299,341.94,47.077,346.152,63.982,347.108z"></path>
		<path style="fill:#FFA617;stroke:#3F3F3F;stroke-width:0.5;stroke-miterlimit:10;" d="M493.714,0h-24.099    c-5.473,2.028-12.597,1.863-21.947,0h-28.809c6.353,1.687,12.179,3.237,16.994,4.109C466.724,9.703,484.225,11.557,493.714,0z"></path>
		<path style="fill:#0059FF;stroke:#3F3F3F;stroke-width:0.5;stroke-miterlimit:10;" d="M454.731,14.191    c-22.871-0.774-67.193-13.463-88.667-0.221c-29.671,18.296-22.029,63.924-24.951,92.477    c-8.101,79.17-28.406,82.988-104.709,88.981c-58.959,4.631-67.19,29.45-61.229,84.164c8.73,80.134-25.172,78.082-95.709,80.641    C35.878,361.814,12.973,367.2,0,381.634v31.845c11.7-24.916,34.453-33.335,89.002-39.711c26.17-3.059,60.435,0.557,82.52-16.049    c25.426-19.119,21.403-43.19,20.989-75.176c-0.712-55.016,6.493-83.679,67.079-83.568c72.596,0.132,98.033,0.986,96.176-76.95    c-0.685-28.739-12.814-66.049,15.138-86.719c22.316-16.502,71.533-9.758,97.106-12.297c11.623-1.154,22.499-2.055,31.99-3.937    v-9.066C489.34,14.947,474.152,14.848,454.731,14.191z"></path>
		<path style="fill:#DCFF6D;stroke:#3F3F3F;stroke-width:0.5;stroke-miterlimit:10;" d="M371.136,62.661    c-15.828,22.421-8.787,36.63-4.13,63.885c12.309,72.042,0.195,85.142-71.095,77.611c-72.338-7.641-80.893,14.344-87.344,80.981    c-7.671,79.243-29.039,87.941-104.624,100.193c-31.33,5.078-73.043,5.938-93.927,32.768C5.407,424.018,2.241,430.636,0,437.664    V500h1.293c2.012-22.202,3.102-44.922,16.937-62.882c20.98-27.236,64.571-31.508,95.657-38.754    c77.093-17.972,98.122-28.956,111.669-109.453c11.312-67.218,18.725-92.816,92.701-79.304    c16.503,3.014,51.517,14.507,67.554,3.444c24.365-16.808,0.823-51.013-5.665-70.257c-9.034-26.799-17.229-36.251-3.042-59.714    C396.353,51.243,464.652,48.343,500,38.548V27.315c-4.338,0.899-8.347,1.678-11.745,2.423    C454.137,37.214,392.845,31.91,371.136,62.661z"></path>
		<path style="fill:#FFA617;stroke:#3F3F3F;stroke-width:0.5;stroke-miterlimit:10;" d="M383.858,100.634    c-13.061,24.193-4.246,30.528,8.38,56.533c8.233,16.958,36.99,49.193,12.28,65.994c-15.909,10.817-51.78-3.194-67.499-6.997    c-75.064-18.161-81.807,10.571-96.569,78.099c-17.783,81.348-38.795,93.849-116.751,116.13    c-30.814,8.807-75.846,15.676-96.91,43.169C16.201,467.383,13.003,483.429,10.993,500h12.74    c2.41-13.067,6.429-25.578,15.412-35.696c17.214-19.389,53.791-27.293,76.939-34.953c33.608-11.121,78.922-16.42,104.521-42.091    c23.525-23.59,27.086-50.989,34.662-84.074c4.564-19.931,7.66-58.576,22.76-74.209c22.466-23.261,45.363-11.05,71.854-4.41    c16.757,4.2,64.431,26.695,78.451,5.434c10.704-16.231-9.587-39.548-17.637-51.138c-21.697-31.24-35.281-39.598-12.759-66.074    C416.318,91.181,463.191,76.893,500,65.75V50.939C461.399,61.463,399.893,70.931,383.858,100.634z"></path>
		<path style="fill:#0059FF;stroke:#3F3F3F;stroke-width:0.5;stroke-miterlimit:10;" d="M409.929,124.657    c-22.46,26.477-8.818,34.869,12.914,66.026c8.082,11.588,28.435,34.874,17.681,51.133c-13.957,21.102-61.885-1.207-78.62-5.328    c-26.503-6.527-49.544-18.702-71.966,4.503c-15.087,15.614-18.168,54.215-22.716,74.127c-7.56,33.099-11.111,60.422-34.646,84.01    c-25.601,25.659-70.838,30.965-104.436,42.09c-23.139,7.662-59.725,15.58-76.929,34.962c-6.227,7.016-10.063,15.154-12.626,23.821    h20.257c1.731-3.457,3.786-6.829,6.274-10.092c20.921-27.436,65.789-34.322,96.462-43.113    c77.401-22.184,98.629-34.708,116.085-115.577c14.773-68.436,21.847-94.902,97.456-78.363c15.897,3.478,52.99,17.09,68.832,6.127    c24.695-17.089-4.437-48.877-12.892-65.867c-12.902-25.925-21.813-32.169-8.918-56.437c11.027-20.75,44.983-32.017,77.857-40.596    V81.193C465.501,91.843,426.275,105.388,409.929,124.657z"></path>
		<path style="fill:#DCFF6D;stroke:#3F3F3F;stroke-width:0.5;stroke-miterlimit:10;" d="M439.954,139.996    c-13.996,23.753-5.645,32.723,4.06,59.612c7.026,19.468,31.249,52.551,6.945,70.078c-16.054,11.578-53.589,0.904-70.592-1.462    c-74.924-10.427-83.76,10.961-94.886,79.96c-12.8,79.381-34.193,90.356-110.035,108.102    c-30.587,7.157-73.954,11.475-94.519,38.489c-1.3,1.708-2.466,3.453-3.538,5.225h20.336c0.473-0.685,0.96-1.366,1.472-2.038    c20.081-26.373,61.529-27.285,91.82-32.183c73.379-11.866,95.346-20.506,101.65-97.736c5.664-69.389,17.855-85.264,91.33-82.182    c18.727,0.786,56.229,7.732,72.977-4.86c24.518-18.434,6.026-53.275,1.312-76.02c-5.749-27.739-13.103-40.748,2.518-63.805    c7.931-11.707,22.354-18.838,39.196-23.59v-10.172C473.94,113.946,449.808,123.273,439.954,139.996z"></path>
		<path style="fill:#FFA617;stroke:#3F3F3F;stroke-width:0.5;stroke-miterlimit:10;" d="M472.995,219.924    c1.78,25.381,9.234,47.038-9.712,66.08c-21.779,21.889-66.342,15.029-93.599,16.965c-61.069,4.339-73.433,25.541-70.946,84.051    c3.341,78.599-28.825,79.563-98.942,87.603c-42.325,4.853-65.03,10.656-77.814,25.378h20.887    c12.453-11.545,34.192-15.588,72.921-16.719c65.826-1.923,101.615,0.176,89.614-75.802c-9.254-58.585,7.453-75.443,66.467-84.855    c79.574-12.693,110.172-12.185,114.158-97.074c1.283-27.322-6.812-64.255,13.971-86.173v-13.805    c-5.668,2.054-10.709,4.597-14.797,7.8C457.16,155.339,470.927,190.431,472.995,219.924z"></path>
		<path style="fill:#0059FF;stroke:#3F3F3F;stroke-width:0.5;stroke-miterlimit:10;" d="M481.436,305.238    c-21.996,26.049-70.14,26.534-100.513,34.018c-60.734,14.963-82.019,23.52-68.662,86.297    c16.435,77.243-22.54,70.115-87.931,65.455c-19.518-1.391-55.781-7.674-72.06,8.992h41.35c9.695-2.111,22.707-2.161,40.211,0    h85.016c10.246-8.067,12.263-24.787,2.297-56.547c-6.452-20.564-17.193-34.628-4.938-53.976    c14.008-22.117,47.308-26.035,70.771-33.108c31.353-9.451,79.741-12.958,102.597-39.518c4.402-5.115,7.774-11.356,10.428-18.237    v-94.19c-0.368,5.696-0.668,10.952-1.087,15.386C496.577,244.532,498.934,284.514,481.436,305.238z"></path>
		<path style="fill:#DCFF6D;stroke:#3F3F3F;stroke-width:0.5;stroke-miterlimit:10;" d="M395.812,370.393    c-23.022,7.622-57.954,12.622-71.47,34.814c-12.006,19.714-0.699,32.132,6.967,52.5c7.255,19.277,9.435,32.883,7.68,42.292h16.594    c-2.688-9.979-7.894-20.216-11.008-29.185c-7.109-20.472-18.626-34.436-6.486-53.97c13.754-22.132,48.471-26.745,71.644-34.125    c26.335-8.387,64.768-12.941,90.268-29.619v-25.646c-0.246,0.297-0.483,0.605-0.735,0.895    C476.347,354.677,427.114,360.029,395.812,370.393z"></path>
		<path style="fill:#FFA617;stroke:#3F3F3F;stroke-width:0.5;stroke-miterlimit:10;" d="M353.524,423.913    c-12.992,19.543-1.414,37.397,4.265,58.62c1.431,5.348,3.606,11.303,5.649,17.467h10.198c-0.258-1.632-0.527-3.285-0.819-4.988    c-4.049-23.53-14.335-45.03-0.621-66.02c14.84-22.714,49.127-23.776,73.738-29.145c14.751-3.218,34.78-4.715,54.066-8.34v-17.756    c-23.985,9.189-53.155,12.189-74.12,18.021C401.73,398.49,368.297,401.693,353.524,423.913z"></path>
		<path style="fill:#0059FF;stroke:#3F3F3F;stroke-width:0.5;stroke-miterlimit:10;" d="M386.629,431.262    c-11.095,16.54-3.918,48.4-0.509,68.738h14.884c-2.339-22.624-4.826-52.012,6.172-66.657    c14.991-19.962,53.102-19.109,74.375-20.562c5.058-0.345,11.381-0.344,18.45-0.281v-9.064c-15.138,1.255-29.66,1.721-40.579,3.229    C439.116,409.471,400.006,411.32,386.629,431.262z"></path>
		<path style="fill:#DCFF6D;stroke:#3F3F3F;stroke-width:0.5;stroke-miterlimit:10;" d="M427.156,440.636    c-11.31,15.737-11.747,38.099-10.958,59.364h16.42c0.452-20.285,2.863-40.661,13.535-54.767    c13.601-17.978,32.721-21.493,53.848-20.919v-5.784C471.844,417.414,443.698,417.618,427.156,440.636z"></path>
		<path style="fill:#FFA617;stroke:#3F3F3F;stroke-width:0.5;stroke-miterlimit:10;" d="M462.115,451.6    c-9.384,12.037-13.149,29.878-14.73,48.4h14.591c1.773-16.901,5.298-32.295,12.546-40.961c7.14-8.537,15.895-13.197,25.479-15.465    v-11.799C485.477,433.074,472.512,438.264,462.115,451.6z"></path>
	</g>
</g>
</svg>
